<mxfile host="app.diagrams.net" modified="2020-10-13T02:59:24.516Z" agent="5.0 (Windows NT 10.0; Win64; x64) AppleWebKit/537.36 (KHTML, like Gecko) Chrome/86.0.4240.75 Safari/537.36 Edg/86.0.622.38" etag="Q_iLiJF-8DGPWyvX4Gpf" version="13.7.9" type="github">
  <diagram id="C5RBs43oDa-KdzZeNtuy" name="Page-1">
    <mxGraphModel dx="1422" dy="794" grid="1" gridSize="10" guides="1" tooltips="1" connect="1" arrows="1" fold="1" page="1" pageScale="1" pageWidth="827" pageHeight="1169" math="0" shadow="0">
      <root>
        <mxCell id="WIyWlLk6GJQsqaUBKTNV-0" />
        <mxCell id="WIyWlLk6GJQsqaUBKTNV-1" parent="WIyWlLk6GJQsqaUBKTNV-0" />
        <mxCell id="4oJUxCtLDNiQwjgYBg_o-6" style="edgeStyle=orthogonalEdgeStyle;rounded=0;orthogonalLoop=1;jettySize=auto;html=1;exitX=1;exitY=0.5;exitDx=0;exitDy=0;" edge="1" parent="WIyWlLk6GJQsqaUBKTNV-1" source="4oJUxCtLDNiQwjgYBg_o-3" target="4oJUxCtLDNiQwjgYBg_o-5">
          <mxGeometry relative="1" as="geometry" />
        </mxCell>
        <mxCell id="4oJUxCtLDNiQwjgYBg_o-3" value="遥感影像&lt;br&gt;（Landsat）" style="shape=parallelogram;html=1;strokeWidth=2;perimeter=parallelogramPerimeter;whiteSpace=wrap;rounded=1;arcSize=12;size=0.23;" vertex="1" parent="WIyWlLk6GJQsqaUBKTNV-1">
          <mxGeometry x="37" y="117" width="100" height="60" as="geometry" />
        </mxCell>
        <mxCell id="4oJUxCtLDNiQwjgYBg_o-12" value="" style="edgeStyle=orthogonalEdgeStyle;rounded=0;orthogonalLoop=1;jettySize=auto;html=1;" edge="1" parent="WIyWlLk6GJQsqaUBKTNV-1" source="4oJUxCtLDNiQwjgYBg_o-5" target="4oJUxCtLDNiQwjgYBg_o-11">
          <mxGeometry relative="1" as="geometry" />
        </mxCell>
        <mxCell id="4oJUxCtLDNiQwjgYBg_o-5" value="监督分类&lt;br&gt;（GEE）" style="rounded=1;whiteSpace=wrap;html=1;absoluteArcSize=1;arcSize=14;strokeWidth=2;" vertex="1" parent="WIyWlLk6GJQsqaUBKTNV-1">
          <mxGeometry x="187" y="117" width="100" height="60" as="geometry" />
        </mxCell>
        <mxCell id="4oJUxCtLDNiQwjgYBg_o-19" value="" style="edgeStyle=orthogonalEdgeStyle;rounded=0;orthogonalLoop=1;jettySize=auto;html=1;" edge="1" parent="WIyWlLk6GJQsqaUBKTNV-1" source="4oJUxCtLDNiQwjgYBg_o-11" target="4oJUxCtLDNiQwjgYBg_o-18">
          <mxGeometry relative="1" as="geometry" />
        </mxCell>
        <mxCell id="4oJUxCtLDNiQwjgYBg_o-11" value="LUC数据&lt;br&gt;（1986-2018）" style="shape=parallelogram;perimeter=parallelogramPerimeter;whiteSpace=wrap;html=1;fixedSize=1;rounded=1;strokeWidth=2;arcSize=14;" vertex="1" parent="WIyWlLk6GJQsqaUBKTNV-1">
          <mxGeometry x="338" y="117" width="100" height="60" as="geometry" />
        </mxCell>
        <mxCell id="4oJUxCtLDNiQwjgYBg_o-15" style="edgeStyle=orthogonalEdgeStyle;rounded=0;orthogonalLoop=1;jettySize=auto;html=1;entryX=0.5;entryY=0;entryDx=0;entryDy=0;exitX=0.5;exitY=1;exitDx=0;exitDy=0;exitPerimeter=0;" edge="1" parent="WIyWlLk6GJQsqaUBKTNV-1" source="4oJUxCtLDNiQwjgYBg_o-13" target="4oJUxCtLDNiQwjgYBg_o-5">
          <mxGeometry relative="1" as="geometry" />
        </mxCell>
        <mxCell id="4oJUxCtLDNiQwjgYBg_o-13" value="训练样本&lt;br&gt;（目视）" style="strokeWidth=2;html=1;shape=mxgraph.flowchart.direct_data;whiteSpace=wrap;" vertex="1" parent="WIyWlLk6GJQsqaUBKTNV-1">
          <mxGeometry x="187" y="27" width="100" height="60" as="geometry" />
        </mxCell>
        <mxCell id="4oJUxCtLDNiQwjgYBg_o-16" style="edgeStyle=orthogonalEdgeStyle;rounded=0;orthogonalLoop=1;jettySize=auto;html=1;entryX=0.5;entryY=0;entryDx=0;entryDy=0;" edge="1" parent="WIyWlLk6GJQsqaUBKTNV-1" source="4oJUxCtLDNiQwjgYBg_o-14" target="4oJUxCtLDNiQwjgYBg_o-11">
          <mxGeometry relative="1" as="geometry" />
        </mxCell>
        <mxCell id="4oJUxCtLDNiQwjgYBg_o-14" value="验证样本&lt;br&gt;(GE/野外)" style="strokeWidth=2;html=1;shape=mxgraph.flowchart.direct_data;whiteSpace=wrap;" vertex="1" parent="WIyWlLk6GJQsqaUBKTNV-1">
          <mxGeometry x="338" y="27" width="100" height="60" as="geometry" />
        </mxCell>
        <mxCell id="4oJUxCtLDNiQwjgYBg_o-24" style="edgeStyle=orthogonalEdgeStyle;rounded=0;orthogonalLoop=1;jettySize=auto;html=1;entryX=0.5;entryY=1;entryDx=0;entryDy=0;" edge="1" parent="WIyWlLk6GJQsqaUBKTNV-1" source="4oJUxCtLDNiQwjgYBg_o-17" target="4oJUxCtLDNiQwjgYBg_o-22">
          <mxGeometry relative="1" as="geometry" />
        </mxCell>
        <mxCell id="4oJUxCtLDNiQwjgYBg_o-36" style="edgeStyle=orthogonalEdgeStyle;rounded=0;orthogonalLoop=1;jettySize=auto;html=1;entryX=0.5;entryY=0;entryDx=0;entryDy=0;entryPerimeter=0;" edge="1" parent="WIyWlLk6GJQsqaUBKTNV-1" source="4oJUxCtLDNiQwjgYBg_o-17" target="4oJUxCtLDNiQwjgYBg_o-25">
          <mxGeometry relative="1" as="geometry">
            <mxPoint x="500" y="200" as="targetPoint" />
            <Array as="points">
              <mxPoint x="680" y="200" />
              <mxPoint x="550" y="200" />
            </Array>
          </mxGeometry>
        </mxCell>
        <mxCell id="4oJUxCtLDNiQwjgYBg_o-17" value="LAI数据&lt;br&gt;（AVHRR）" style="shape=parallelogram;html=1;strokeWidth=2;perimeter=parallelogramPerimeter;whiteSpace=wrap;rounded=1;arcSize=12;size=0.23;" vertex="1" parent="WIyWlLk6GJQsqaUBKTNV-1">
          <mxGeometry x="630" y="117" width="100" height="60" as="geometry" />
        </mxCell>
        <mxCell id="4oJUxCtLDNiQwjgYBg_o-21" value="" style="edgeStyle=orthogonalEdgeStyle;rounded=0;orthogonalLoop=1;jettySize=auto;html=1;" edge="1" parent="WIyWlLk6GJQsqaUBKTNV-1" source="4oJUxCtLDNiQwjgYBg_o-18" target="4oJUxCtLDNiQwjgYBg_o-20">
          <mxGeometry relative="1" as="geometry" />
        </mxCell>
        <mxCell id="4oJUxCtLDNiQwjgYBg_o-35" style="edgeStyle=orthogonalEdgeStyle;rounded=0;orthogonalLoop=1;jettySize=auto;html=1;exitX=0.5;exitY=1;exitDx=0;exitDy=0;entryX=0.5;entryY=0;entryDx=0;entryDy=0;entryPerimeter=0;" edge="1" parent="WIyWlLk6GJQsqaUBKTNV-1" source="4oJUxCtLDNiQwjgYBg_o-18" target="4oJUxCtLDNiQwjgYBg_o-25">
          <mxGeometry relative="1" as="geometry" />
        </mxCell>
        <mxCell id="4oJUxCtLDNiQwjgYBg_o-18" value="LUCC分析" style="whiteSpace=wrap;html=1;rounded=1;strokeWidth=2;arcSize=14;" vertex="1" parent="WIyWlLk6GJQsqaUBKTNV-1">
          <mxGeometry x="500" y="117" width="100" height="60" as="geometry" />
        </mxCell>
        <mxCell id="4oJUxCtLDNiQwjgYBg_o-23" value="" style="edgeStyle=orthogonalEdgeStyle;rounded=0;orthogonalLoop=1;jettySize=auto;html=1;" edge="1" parent="WIyWlLk6GJQsqaUBKTNV-1" source="4oJUxCtLDNiQwjgYBg_o-20" target="4oJUxCtLDNiQwjgYBg_o-22">
          <mxGeometry relative="1" as="geometry" />
        </mxCell>
        <mxCell id="4oJUxCtLDNiQwjgYBg_o-20" value="LUC&lt;br&gt;转移网络" style="shape=parallelogram;perimeter=parallelogramPerimeter;whiteSpace=wrap;html=1;fixedSize=1;rounded=1;strokeWidth=2;arcSize=14;" vertex="1" parent="WIyWlLk6GJQsqaUBKTNV-1">
          <mxGeometry x="500" y="27" width="100" height="60" as="geometry" />
        </mxCell>
        <mxCell id="4oJUxCtLDNiQwjgYBg_o-22" value="叶面积&lt;br&gt;转移网络" style="shape=parallelogram;perimeter=parallelogramPerimeter;whiteSpace=wrap;html=1;fixedSize=1;rounded=1;strokeWidth=2;arcSize=14;" vertex="1" parent="WIyWlLk6GJQsqaUBKTNV-1">
          <mxGeometry x="630" y="27" width="100" height="60" as="geometry" />
        </mxCell>
        <mxCell id="4oJUxCtLDNiQwjgYBg_o-25" value="格式化数据&lt;br&gt;（时间序列）" style="strokeWidth=2;html=1;shape=mxgraph.flowchart.stored_data;whiteSpace=wrap;" vertex="1" parent="WIyWlLk6GJQsqaUBKTNV-1">
          <mxGeometry x="500" y="220" width="100" height="60" as="geometry" />
        </mxCell>
        <mxCell id="4oJUxCtLDNiQwjgYBg_o-27" style="edgeStyle=orthogonalEdgeStyle;rounded=0;orthogonalLoop=1;jettySize=auto;html=1;entryX=0.93;entryY=0.5;entryDx=0;entryDy=0;entryPerimeter=0;" edge="1" parent="WIyWlLk6GJQsqaUBKTNV-1" source="4oJUxCtLDNiQwjgYBg_o-26" target="4oJUxCtLDNiQwjgYBg_o-25">
          <mxGeometry relative="1" as="geometry">
            <mxPoint x="653" y="270" as="targetPoint" />
          </mxGeometry>
        </mxCell>
        <mxCell id="4oJUxCtLDNiQwjgYBg_o-26" value="多源数据" style="shape=parallelogram;html=1;strokeWidth=2;perimeter=parallelogramPerimeter;whiteSpace=wrap;rounded=1;arcSize=12;size=0.23;" vertex="1" parent="WIyWlLk6GJQsqaUBKTNV-1">
          <mxGeometry x="630" y="220" width="100" height="60" as="geometry" />
        </mxCell>
        <mxCell id="4oJUxCtLDNiQwjgYBg_o-31" value="" style="edgeStyle=orthogonalEdgeStyle;rounded=0;orthogonalLoop=1;jettySize=auto;html=1;" edge="1" parent="WIyWlLk6GJQsqaUBKTNV-1" source="4oJUxCtLDNiQwjgYBg_o-28" target="4oJUxCtLDNiQwjgYBg_o-30">
          <mxGeometry relative="1" as="geometry" />
        </mxCell>
        <mxCell id="4oJUxCtLDNiQwjgYBg_o-28" value="本底数据" style="shape=parallelogram;html=1;strokeWidth=2;perimeter=parallelogramPerimeter;whiteSpace=wrap;rounded=1;arcSize=12;size=0.23;" vertex="1" parent="WIyWlLk6GJQsqaUBKTNV-1">
          <mxGeometry x="37" y="220" width="100" height="60" as="geometry" />
        </mxCell>
        <mxCell id="4oJUxCtLDNiQwjgYBg_o-33" style="edgeStyle=orthogonalEdgeStyle;rounded=0;orthogonalLoop=1;jettySize=auto;html=1;entryX=0;entryY=0.5;entryDx=0;entryDy=0;entryPerimeter=0;" edge="1" parent="WIyWlLk6GJQsqaUBKTNV-1" source="4oJUxCtLDNiQwjgYBg_o-30" target="4oJUxCtLDNiQwjgYBg_o-32">
          <mxGeometry relative="1" as="geometry" />
        </mxCell>
        <mxCell id="4oJUxCtLDNiQwjgYBg_o-30" value="多尺度单元&lt;br&gt;划分" style="whiteSpace=wrap;html=1;rounded=1;strokeWidth=2;arcSize=12;" vertex="1" parent="WIyWlLk6GJQsqaUBKTNV-1">
          <mxGeometry x="170" y="220" width="100" height="60" as="geometry" />
        </mxCell>
        <mxCell id="4oJUxCtLDNiQwjgYBg_o-37" style="edgeStyle=orthogonalEdgeStyle;rounded=0;orthogonalLoop=1;jettySize=auto;html=1;entryX=0;entryY=0.5;entryDx=0;entryDy=0;entryPerimeter=0;" edge="1" parent="WIyWlLk6GJQsqaUBKTNV-1" source="4oJUxCtLDNiQwjgYBg_o-32" target="4oJUxCtLDNiQwjgYBg_o-25">
          <mxGeometry relative="1" as="geometry" />
        </mxCell>
        <mxCell id="4oJUxCtLDNiQwjgYBg_o-32" value="空间多尺度&lt;br&gt;节点单元" style="strokeWidth=2;html=1;shape=mxgraph.flowchart.multi-document;whiteSpace=wrap;" vertex="1" parent="WIyWlLk6GJQsqaUBKTNV-1">
          <mxGeometry x="350" y="220" width="88" height="60" as="geometry" />
        </mxCell>
        <mxCell id="4oJUxCtLDNiQwjgYBg_o-34" value="" style="strokeWidth=2;html=1;shape=mxgraph.flowchart.annotation_2;align=left;labelPosition=right;pointerEvents=1;rotation=90;" vertex="1" parent="WIyWlLk6GJQsqaUBKTNV-1">
          <mxGeometry x="525" y="-30" width="50" height="680" as="geometry" />
        </mxCell>
        <mxCell id="4oJUxCtLDNiQwjgYBg_o-41" value="" style="aspect=fixed;html=1;points=[];align=center;image;fontSize=12;image=data:image/svg+xml,PHN2ZyB4bWxucz0iaHR0cDovL3d3dy53My5vcmcvMjAwMC9zdmciIHhtbG5zOnhsaW5rPSJodHRwOi8vd3d3LnczLm9yZy8xOTk5L3hsaW5rIiB3aWR0aD0iNjUiIGhlaWdodD0iNTkiIG92ZXJmbG93PSJoaWRkZW4iIHZpZXdCb3g9IjAgMCA2NSA1OSI+PGRlZnM+PGNsaXBQYXRoIGlkPSJjbGlwMCI+PHJlY3QgeD0iMjMxIiB5PSI1NTUiIHdpZHRoPSI2NSIgaGVpZ2h0PSI1OSIvPjwvY2xpcFBhdGg+PC9kZWZzPjxnIGNsaXAtcGF0aD0idXJsKCNjbGlwMCkiIHRyYW5zZm9ybT0idHJhbnNsYXRlKC0yMzEgLTU1NSkiPjxwYXRoIGQ9Ik0yNjEuOTM5IDYwOS4wMzggMjY3LjAzMSA2MTEuNDQ4IDI2MS45MzkgNjE0IDI2MS45MzkgNjEyLjU4MiAyNTguOTY5IDYxMi41ODIgMjU4Ljk2OSA2MTAuNDU1IDI2MS45MzkgNjEwLjQ1NVpNMjg3Ljc3NiA1OTQuODU2IDI4Ny40OTQgNjAwLjM4OCAyODYuMjI0IDU5OS42NzkgMjg0LjgxMyA2MDIuMjMyIDI4Mi44MzkgNjAxLjIzOSAyODQuMzkgNTk4LjU0NCAyODMuMTIxIDU5Ny44MzVaTTIzOS4xODkgNTk0LjI4NyAyNDAuNjA2IDU5Ni44NCAyNDEuODgyIDU5Ni4xMzEgMjQyLjE2NSA2MDEuNjYyIDIzNy40ODkgNTk4LjY4NCAyMzguNzY0IDU5Ny45NzUgMjM3LjIwNSA1OTUuMjhaTTI4My44MzUgNTY4LjMzNyAyODguNDkgNTcxLjQ1NiAyODcuMzYyIDU3Mi4xNjQgMjg4Ljc3MiA1NzQuNzE1IDI4Ni45MzggNTc1Ljg0OSAyODUuMzg3IDU3My4yOTggMjg0LjI1OCA1NzQuMDA3Wk0yNDEuMTY0IDU2Ny43NjggMjQzLjEzOSA1NjguOTAyIDI0MS41ODcgNTcxLjQ1MyAyNDIuODU3IDU3Mi4xNjIgMjM4LjIwMiA1NzUuMjggMjM4LjQ4NCA1NjkuNjExIDIzOS43NTMgNTcwLjMyWk0yNDkuMDkzIDU1Ni40MjNDMjUxLjI5MSA1NTYuMTcgMjUzLjU3IDU1Ny4yMzQgMjU0LjczNSA1NTkuMjU1IDI1Ni4xNDggNTYxLjgwOSAyNTUuNDQxIDU2NS4wNzEgMjUzLjA0IDU2Ni43NzNMMjU4LjY5MSA1NzYuNzAyQzI1OS45NjIgNTc1Ljk5MyAyNjEuNTE3IDU3NS41NjcgMjYzLjA3MSA1NzUuNTY3IDI2NC42MjUgNTc1LjU2NyAyNjYuMDM4IDU3NS45OTMgMjY3LjMwOSA1NzYuNzAyTDI3Mi45NiA1NjYuNzczQzI3MC41NTkgNTY1LjA3MSAyNjkuODUyIDU2MS44MDkgMjcxLjI2NSA1NTkuMjU1IDI3Mi44MTkgNTU2LjU2IDI3Ni4zNTEgNTU1LjU2OCAyNzkuMDM1IDU1Ny4xMjggMjgxLjcyIDU1OC42ODggMjgyLjcwOSA1NjIuMjM0IDI4MS4xNTUgNTY0LjkyOSAyNzkuNiA1NjcuNDgyIDI3Ni40OTIgNTY4LjQ3NSAyNzMuODA4IDU2Ny4xOTlMMjY4LjE1NyA1NzcuMTI4QzI3MC41NTkgNTc4LjY4OCAyNzIuMjU0IDU4MS4zODMgMjcyLjM5NSA1ODQuNTAzTDI4My44MzkgNTg0LjUwM0MyODMuOTggNTgxLjY2NyAyODYuMzgyIDU3OS4zOTcgMjg5LjM0OSA1NzkuMzk3IDI5Mi40NTcgNTc5LjM5NyAyOTUgNTgxLjk1IDI5NSA1ODUuMDcxIDI5NSA1ODguMTkxIDI5Mi40NTcgNTkwLjc0NSAyODkuMzQ5IDU5MC43NDUgMjg2LjM4MiA1OTAuNzQ1IDI4My45OCA1ODguNDc1IDI4My44MzkgNTg1LjQ5NkwyNzIuMzk1IDU4NS40OTZDMjcyLjI1NCA1ODguNjE3IDI3MC41NTkgNTkxLjMxMiAyNjguMTU3IDU5My4wMTRMMjczLjgwOCA2MDIuODAxQzI3Ni40OTIgNjAxLjY2NyAyNzkuNiA2MDIuNTE4IDI4MS4xNTUgNjA1LjA3MSAyODIuNzA5IDYwNy43NjYgMjgxLjcyIDYxMS4zMTIgMjc5LjAzNSA2MTIuODcyIDI3Ni4zNTEgNjE0LjQzMiAyNzIuODE5IDYxMy40NCAyNzEuMjY1IDYxMC43NDUgMjY5Ljg1MiA2MDguMTkxIDI3MC41NTkgNjA0LjkyOSAyNzIuOTYgNjAzLjM2OUwyNjcuMzA5IDU5My40NEMyNjYuMDM4IDU5NC4wMDcgMjY0LjYyNSA1OTQuNDMyIDI2My4wNzEgNTk0LjQzMiAyNjEuNTE3IDU5NC40MzIgMjYwLjEwNCA1OTQuMDA3IDI1OC42OTEgNTkzLjQ0TDI1My4wNCA2MDMuMzY5QzI1NS40NDEgNjA0LjkyOSAyNTYuMTQ4IDYwOC4xOTEgMjU0LjczNSA2MTAuNzQ1IDI1My4xODEgNjEzLjQ0IDI0OS42NDkgNjE0LjQzMiAyNDYuOTY1IDYxMi44NzIgMjQ0LjI4IDYxMS4zMTIgMjQzLjQzMyA2MDcuNzY2IDI0NC45ODcgNjA1LjA3MSAyNDYuNCA2MDIuNTE4IDI0OS42NDkgNjAxLjY2NyAyNTIuMTkyIDYwMi44MDFMMjU3Ljk4NSA1OTMuMDE0QzI1NS40NDEgNTkxLjMxMiAyNTMuNzQ2IDU4OC42MTcgMjUzLjYwNSA1ODUuNDk2TDI0Mi4zMDIgNTg1LjQ5NkMyNDIuMDIgNTg4LjMzMyAyMzkuNjE4IDU5MC43NDUgMjM2LjY1MSA1OTAuNzQ1IDIzMy41NDMgNTkwLjc0NSAyMzEgNTg4LjE5MSAyMzEgNTg1LjA3MSAyMzEgNTgxLjk1IDIzMy41NDMgNTc5LjM5NyAyMzYuNjUxIDU3OS4zOTcgMjM5LjYxOCA1NzkuMzk3IDI0Mi4wMiA1ODEuNjY3IDI0Mi4zMDIgNTg0LjUwM0wyNTMuNjA1IDU4NC41MDNDMjUzLjc0NiA1ODEuMzgzIDI1NS40NDEgNTc4LjY4OCAyNTcuOTg1IDU3Ny4xMjhMMjUyLjE5MiA1NjcuMTk5QzI0OS42NDkgNTY4LjQ3NSAyNDYuNCA1NjcuNDgyIDI0NC45ODcgNTY0LjkyOSAyNDMuNDMzIDU2Mi4yMzQgMjQ0LjI4IDU1OC42ODggMjQ2Ljk2NSA1NTcuMTI4IDI0Ny42MzYgNTU2LjczOCAyNDguMzYgNTU2LjUwNyAyNDkuMDkzIDU1Ni40MjNaTTI2NC4wNjEgNTU2IDI2NC4wNjEgNTU3LjQxNiAyNjcuMDMxIDU1Ny40MTYgMjY3LjAzMSA1NTkuNjgyIDI2NC4wNjEgNTU5LjY4MiAyNjQuMDYxIDU2MS4wOTkgMjU4Ljk2OSA1NTguNTQ5WiIgZmlsbC1ydWxlPSJldmVub2RkIi8+PC9nPjwvc3ZnPg==;fillOpacity=100;portConstraintRotation=0;backgroundOutline=0;comic=0;noLabel=0;container=0;sketch=0;" vertex="1" parent="WIyWlLk6GJQsqaUBKTNV-1">
          <mxGeometry x="430" y="370" width="110" height="100" as="geometry" />
        </mxCell>
      </root>
    </mxGraphModel>
  </diagram>
</mxfile>
